<svg xmlns="http://www.w3.org/2000/svg" width="13" height="13" viewBox="0 0 13 13"><path fill="#1B8823" fill-rule="evenodd" d="M5.018 12.769c-.263 0-.499-.055-.707-.163a2.02 2.02 0 0 1-.612-.53L.367 8.022a1.945 1.945 0 0 1-.272-.476A1.377 1.377 0 0 1 0 7.044c0-.345.12-.641.36-.89.24-.25.533-.375.877-.375.218 0 .413.046.585.136.172.09.35.25.53.476L4.964 9.71l5.63-9.002C10.883.236 11.25 0 11.695 0c.335 0 .636.109.904.326.267.218.401.503.401.857 0 .154-.036.315-.109.483a3.518 3.518 0 0 1-.245.469l-6.364 9.927a1.685 1.685 0 0 1-.564.53 1.423 1.423 0 0 1-.7.177Z"/></svg>
