<svg width="16" height="13" xmlns="http://www.w3.org/2000/svg" xmlns:xlink="http://www.w3.org/1999/xlink"><defs><path d="M13.818 0H2.182C.945 0 0 .939 0 2.167v8.666C0 12.061.945 13 2.182 13h11.636C15.055 13 16 12.061 16 10.833V2.167C16 .939 15.055 0 13.818 0zM2.182 1.444h11.636c.291 0 .51.145.655.434L8 6.356 1.527 1.878c.146-.29.364-.434.655-.434zm11.636 10.112H2.182c-.437 0-.727-.29-.727-.723V3.54L7.564 7.8c.145.072.29.144.436.144.145 0 .29-.072.436-.144l6.11-4.261v7.294c0 .434-.291.723-.728.723z" id="a"/></defs><use fill="#888" fill-rule="nonzero" xlink:href="#a"/></svg>
