<?xml version="1.0" encoding="UTF-8" standalone="no"?>
<svg width="15px" height="15px" viewBox="0 0 15 15" version="1.1" xmlns="http://www.w3.org/2000/svg" xmlns:xlink="http://www.w3.org/1999/xlink">
    <!-- Generator: Sketch 3.7 (28169) - http://www.bohemiancoding.com/sketch -->
    <title>instagram</title>
    <desc>Created with Sketch.</desc>
    <defs></defs>
    <g id="Page-1" stroke="none" stroke-width="1" fill="none" fill-rule="evenodd">
        <path d="M13.2698077,6.34557692 L11.9636538,6.34557692 C12.0588462,6.71480769 12.1153846,7.10076923 12.1153846,7.5 C12.1153846,10.0488462 10.0488462,12.1153846 7.5,12.1153846 C4.95115385,12.1153846 2.88461538,10.0488462 2.88461538,7.5 C2.88461538,7.10076923 2.94115385,6.71480769 3.03634615,6.34557692 L1.73019231,6.34557692 L1.73019231,12.6923077 C1.73019231,13.0101923 1.98865385,13.2686538 2.30769231,13.2686538 L12.6923077,13.2686538 C13.0113462,13.2686538 13.2698077,13.0101923 13.2698077,12.6923077 L13.2698077,6.34557692 L13.2698077,6.34557692 Z M13.2698077,2.30769231 C13.2698077,1.98923077 13.0113462,1.73076923 12.6923077,1.73076923 L10.9615385,1.73076923 C10.6430769,1.73076923 10.3846154,1.98923077 10.3846154,2.30769231 L10.3846154,4.03846154 C10.3846154,4.35692308 10.6430769,4.61538462 10.9615385,4.61538462 L12.6923077,4.61538462 C13.0113462,4.61538462 13.2698077,4.35692308 13.2698077,4.03846154 L13.2698077,2.30769231 L13.2698077,2.30769231 Z M7.5,4.61538462 C5.90653846,4.61538462 4.61538462,5.90653846 4.61538462,7.5 C4.61538462,9.09288462 5.90653846,10.3846154 7.5,10.3846154 C9.09288462,10.3846154 10.3846154,9.09288462 10.3846154,7.5 C10.3846154,5.90653846 9.09288462,4.61538462 7.5,4.61538462 L7.5,4.61538462 Z M13.2698077,15 L1.73019231,15 C0.774807692,15 0,14.2246154 0,13.2686538 L0,1.73076923 C0,0.774807692 0.774807692,0 1.73019231,0 L13.2698077,0 C14.2251923,0 15,0.774807692 15,1.73076923 L15,13.2686538 C15,14.2246154 14.2251923,15 13.2698077,15 L13.2698077,15 Z" id="instagram" fill="#3F729B"></path>
    </g>
</svg>