<?xml version="1.0" encoding="UTF-8" standalone="no"?>
<svg width="12px" height="14px" viewBox="0 0 12 14" version="1.1" xmlns="http://www.w3.org/2000/svg" xmlns:xlink="http://www.w3.org/1999/xlink">
    <!-- Generator: Sketch 3.7.2 (28276) - http://www.bohemiancoding.com/sketch -->
    <title>lock</title>
    <desc>Created with Sketch.</desc>
    <defs></defs>
    <g id="Page-1" stroke="none" stroke-width="1" fill="none" fill-rule="evenodd">
        <path d="M8.76923077,3.77777778 C8.76923077,2.30511111 7.52930769,1.11111111 6,1.11111111 C4.47069231,1.11111111 3.23076923,2.30511111 3.23076923,3.77777778 L3.23076923,6.88888889 L8.76923077,6.88888889 L8.76923077,3.77777778 Z M0.692307692,14 C0.309923077,14 0,13.7015556 0,13.3333333 L0,7.55555556 C0,7.18733333 0.309923077,6.88888889 0.692307692,6.88888889 L1.84615385,6.88888889 L1.84615385,4 C1.84615385,1.79088889 3.70592308,0 6,0 C8.29407692,0 10.1538462,1.79088889 10.1538462,4 L10.1538462,6.88888889 L11.3076923,6.88888889 C11.6900769,6.88888889 12,7.18733333 12,7.55555556 L12,13.3333333 C12,13.7015556 11.6900769,14 11.3076923,14 L0.692307692,14 Z" id="lock" fill="#999C9F"></path>
    </g>
</svg>