<svg width="48" height="48" xmlns="http://www.w3.org/2000/svg"><defs><linearGradient x1="66.67%" y1="16.67%" x2="41.67%" y2="75%" id="a"><stop stop-color="#37AEE2" offset="0%"/><stop stop-color="#1E96C8" offset="100%"/></linearGradient><linearGradient x1="61.235%" y1="43.69%" x2="74.706%" y2="80.24%" id="b"><stop stop-color="#EFF7FC" offset="0%"/><stop stop-color="#FFF" offset="100%"/></linearGradient></defs><g fill="none" fill-rule="evenodd"><circle fill="url(#a)" cx="24" cy="24" r="24"/><path d="M19.6 35c-.778 0-.645-.294-.914-1.034L16.4 26.441 34 16" fill="#C8DAEA"/><path d="M19.6 35c.6 0 .865-.274 1.2-.6l3.2-3.112-3.992-2.407" fill="#A9C9DD"/><path d="M20.008 28.882l9.672 7.146c1.104.609 1.9.293 2.175-1.025l3.937-18.552c.403-1.617-.616-2.35-1.672-1.87l-23.118 8.914c-1.578.633-1.569 1.513-.287 1.906l5.932 1.851 13.735-8.665c.648-.393 1.243-.181.755.252" fill="url(#b)"/></g></svg>
