<?xml version="1.0" encoding="UTF-8" standalone="no"?>
<svg width="16px" height="12px" viewBox="0 0 16 12" version="1.1" xmlns="http://www.w3.org/2000/svg" xmlns:xlink="http://www.w3.org/1999/xlink">
    <!-- Generator: Sketch 3.7 (28169) - http://www.bohemiancoding.com/sketch -->
    <title>twitter</title>
    <desc>Created with Sketch.</desc>
    <defs></defs>
    <g id="Page-1" stroke="none" stroke-width="1" fill="none" fill-rule="evenodd">
        <path d="M15.482,1.422 C14.938,1.6625 14.357,1.825 13.7445,1.9 C14.3695,1.525 14.8505,0.931 15.0755,0.225 C14.491,0.572 13.8445,0.825 13.154,0.9595 C12.6005,0.3685 11.813,0 10.9445,0 C9.2725,0 7.9195,1.356 7.9195,3.028 C7.9195,3.2655 7.9445,3.497 7.9975,3.719 C5.482,3.594 3.2505,2.3875 1.76,0.553 C1.5005,1 1.3505,1.522 1.3505,2.075 C1.3505,3.125 1.888,4.053 2.7005,4.597 C2.2005,4.5845 1.732,4.447 1.3255,4.2185 L1.3255,4.2565 C1.3255,5.725 2.3695,6.947 3.7535,7.225 C3.5005,7.2935 3.232,7.331 2.957,7.331 C2.763,7.331 2.5725,7.3125 2.388,7.275 C2.7725,8.478 3.8915,9.353 5.2165,9.378 C4.182,10.1905 2.8755,10.675 1.457,10.675 C1.213,10.675 0.9725,10.6595 0.735,10.6315 C2.0695,11.5 3.66,12 5.366,12 C10.938,12 13.982,7.3845 13.982,3.381 C13.982,3.25 13.9785,3.1185 13.9725,2.9905 C14.563,2.5625 15.0755,2.0315 15.482,1.422" id="twitter" fill="#8AA1B4"></path>
    </g>
</svg>