<svg xmlns="http://www.w3.org/2000/svg" width="11" height="15" viewBox="0 0 11 15"><path fill="#C2514C" fill-rule="nonzero" d="M.357 13.457c.162.162.352.268.573.32.22.052.437.052.653 0 .215-.052.398-.151.55-.299l2.776-2.783 2.773 2.773c.158.158.343.262.557.312.213.05.428.048.644-.005.217-.054.406-.161.567-.323.162-.161.27-.35.323-.568.053-.217.055-.433.005-.648-.05-.214-.153-.399-.312-.553L6.7 8.904l2.766-2.766c.159-.158.263-.344.312-.559.05-.215.048-.43-.005-.648a1.15 1.15 0 0 0-.323-.563 1.214 1.214 0 0 0-.567-.325 1.314 1.314 0 0 0-.644-.005 1.182 1.182 0 0 0-.557.31L4.91 7.114 2.132 4.342a1.176 1.176 0 0 0-.55-.301 1.37 1.37 0 0 0-.652-.003 1.202 1.202 0 0 0-.89.893c-.053.22-.053.438 0 .653.054.215.154.398.302.549l2.783 2.771-2.783 2.784c-.148.147-.248.33-.302.546a1.355 1.355 0 0 0 0 .653c.053.219.159.41.317.57"/></svg>
