<?xml version="1.0" encoding="UTF-8"?>
<svg width="795px" height="211px" viewBox="0 0 795 211" version="1.1" xmlns="http://www.w3.org/2000/svg" xmlns:xlink="http://www.w3.org/1999/xlink">
    <!-- Generator: Sketch 40 (33762) - http://www.bohemiancoding.com/sketch -->
    <title>logo</title>
    <desc>Created with Sketch.</desc>
    <defs></defs>
    <g id="Page-1" stroke="none" stroke-width="1" fill="none" fill-rule="evenodd">
        <g id="logo" fill="#FFFFFF">
            <path d="M427.40772,167.10036 C415.288049,167.10036 405.459746,176.924273 405.459746,189.048334 C405.459746,201.168005 415.288049,210.996308 427.40772,210.996308 C439.531781,210.996308 449.355694,201.168005 449.355694,189.048334 C449.355694,176.924273 439.531781,167.10036 427.40772,167.10036" id="Fill-6" opacity="0.6"></path>
            <path d="M632.621276,105.000762 L660.793695,105.000762 C662.189586,83.5180855 676.420652,74.8749734 706.818596,74.8749734 C733.876059,74.8749734 746.42591,81.8500395 746.42591,98.0256963 C746.42591,116.159112 729.130907,115.3207 695.94118,118.946505 C653.26554,123.691657 626.761167,130.938878 626.761167,165.809819 C626.761167,193.701304 646.571408,210.996308 684.229742,210.996308 C711.840293,210.996308 733.599514,200.952915 747.259933,183.662301 C750.056105,199.837958 757.860804,208.48107 773.483372,208.48107 C778.509458,208.48107 786.318547,207.923591 794.966049,206.5277 L794.966049,184.777258 C791.612399,185.334736 789.11033,185.606891 786.871636,185.606891 C776.275155,185.606891 773.483372,178.078736 773.483372,162.464948 L773.483372,101.651502 C773.483372,65.108125 754.796867,52.0051846 704.865227,52.0051846 C658.844715,52.0051846 634.574645,69.5767325 632.621276,105.000762 Z M688.68957,188.11774 C667.487827,188.11774 655.495454,178.636215 655.495454,164.413928 C655.495454,146.003967 671.67989,143.493119 700.958487,140.148248 C723.556121,137.63301 738.616821,134.564683 746.42591,129.823921 L746.42591,152.140621 C746.42591,171.10367 723.275187,188.11774 688.68957,188.11774 Z" id="Path" opacity="0.6"></path>
            <path d="M613.052462,56.7415573 L585.995,56.7415573 L585.995,133.173182 C585.995,166.643842 562.291188,188.11774 530.488574,188.11774 C503.435501,188.11774 494.502676,174.452931 494.502676,144.050598 L494.502676,56.7415573 L467.445214,56.7415573 L467.445214,151.864076 C467.445214,193.973459 488.085088,210.996308 524.347531,210.996308 C549.736947,210.996308 569.538409,201.510393 585.995,181.423607 L585.995,206.808634 L613.052462,206.808634 L613.052462,56.7415573" id="Fill-4" opacity="0.6"></path>
            <path d="M352.472947,163.838891 C345.954399,171.520682 334.580959,174.865553 320.178698,174.89189 C305.763269,174.874332 295.057048,170.691048 287.818606,163.606242 C280.597722,156.490709 280.746969,146.047863 280.711852,131.812407 C280.746969,117.576951 280.597722,107.129716 287.818606,100.018572 C295.057048,92.9337663 305.763269,88.7504825 320.178698,88.7285345 C334.580959,88.7504825 345.225726,92.9074287 352.380766,100.001014 C354.702861,102.301162 357.911655,103.644378 361.695486,101.405684 C368.977824,97.0907126 380.557575,89.8083748 382.875281,88.3685877 C386.272827,86.2571927 386.790799,81.9114938 384.736469,78.9924133 C383.481045,77.4384967 382.111491,75.9372553 380.627808,74.5062474 C366.010458,60.3673626 345.058922,52.6065591 320.178698,52.6241174 C295.289696,52.6065591 274.281095,60.3585834 259.602291,74.4974682 C244.897148,88.6056259 241.266953,108.837268 241.30207,132.32599 C241.266953,155.792764 244.910317,175.826874 259.646186,189.680435 C274.364498,203.560334 295.333592,211.000697 320.178698,210.996308 L320.218205,210.996308 C345.032584,210.996308 365.931445,203.542776 380.583912,189.662877 C382.076374,188.258207 383.450318,186.783303 384.718911,185.238165 C386.422073,183.592067 387.932094,178.105074 383.235228,175.423031 C377.405846,172.104498 367.296609,165.498158 362.213458,162.535181 C358.627159,160.454513 355.146211,160.682772 352.472947,163.838891" id="Fill-3"></path>
            <path d="M114.851013,210.026207 C113.121513,210.026207 111.42274,209.323872 110.198043,208.094785 C108.964566,206.878868 108.262231,205.180094 108.262231,203.441815 L108.262231,123.968201 C108.310517,110.65895 104.127233,103.771676 100.409246,98.9957967 C96.7878305,94.3033199 87.9296283,89.6503494 76.5869154,89.53622 L74.554533,89.53622 C52.6241174,89.53622 38.177961,106.642471 37.8882478,133.906244 L37.8882478,203.441815 C37.8882478,205.197653 37.203471,206.85253 35.9568261,208.094785 C34.7101811,209.337041 33.0596935,210.026207 31.3038556,210.026207 L6.59043698,210.026207 C4.85654705,210.026207 3.16216346,209.323872 1.93307692,208.094785 C0.712769574,206.878868 0.00165521978,205.180094 0.00165521978,203.441815 L0.00165521978,66.3986659 C0.00165521978,64.6647759 0.712769574,62.9703923 1.93307692,61.7456954 C3.16216346,60.5166089 4.85654705,59.8142737 6.59043698,59.8142737 L31.3038556,59.8142737 C33.0333559,59.8142737 34.7321291,60.5166089 35.9568261,61.7456954 C37.1859126,62.9703923 37.8882478,64.6647759 37.8882478,66.3986659 L37.8882478,73.492251 C50.8858379,62.377797 63.7034547,55.4422373 83.5136959,55.4817436 L85.115898,55.4817436 C106.989249,55.3720038 122.405506,62.9352756 131.636823,75.4543999 C140.806687,87.8989011 146.100538,103.40295 146.144434,121.92704 L146.144434,203.441815 C146.144434,205.197653 145.459657,206.85253 144.217402,208.094785 C142.970757,209.337041 141.31588,210.026207 139.560042,210.026207 L114.851013,210.026207" id="Fill-2"></path>
            <path d="M212.409757,61.750085 C211.180671,60.5209985 209.486287,59.8186633 207.743618,59.8186633 L183.043368,59.8186633 C181.305088,59.8186633 179.606315,60.5209985 178.390397,61.750085 C177.161311,62.9791715 176.450197,64.6735551 176.450197,66.4030555 L176.450197,203.441815 C176.450197,205.180094 177.161311,206.878868 178.390397,208.103565 C179.606315,209.323872 181.305088,210.026207 183.043368,210.026207 L207.743618,210.026207 C209.512624,210.026207 211.163112,209.337041 212.400978,208.103565 C213.643233,206.861309 214.336789,205.206432 214.336789,203.441815 L214.336789,66.4030555 C214.336789,64.6735551 213.625675,62.9791715 212.409757,61.750085" id="Path"></path>
            <path d="M217.343662,22.5378348 C217.343662,34.6618956 207.515359,44.4858087 195.395688,44.4858087 C183.271627,44.4858087 173.447714,34.6618956 173.447714,22.5378348 C173.447714,10.413774 183.271627,0.58986092 195.395688,0.58986092 C207.515359,0.58986092 217.343662,10.413774 217.343662,22.5378348" id="Fill-7"></path>
        </g>
    </g>
</svg>